<svg xmlns="http://www.w3.org/2000/svg" width="30" height="30" viewBox="0 0 30 30">
  <g id="envelope" transform="translate(0 -54.82)">
    <g id="Group_9" data-name="Group 9" transform="translate(0 54.82)">
      <path id="Path_28" data-name="Path 28" d="M2.879,64.067q.569.511,3.432,3.036T10.7,70.992q.167.149.711.65t.9.81q.36.309.871.692a4.65,4.65,0,0,0,.963.575,2.151,2.151,0,0,0,.837.192h.034a2.153,2.153,0,0,0,.837-.192,4.654,4.654,0,0,0,.963-.575q.51-.384.87-.692t.9-.81q.544-.5.712-.65,1.54-1.363,7.835-6.925a9.389,9.389,0,0,0,2.042-2.621A6.725,6.725,0,0,0,30,58.229a3.752,3.752,0,0,0-.8-2.408,2.349,2.349,0,0,0-1.883-1H2.678A2.211,2.211,0,0,0,.695,55.928,5.124,5.124,0,0,0,0,58.7a5.809,5.809,0,0,0,.921,2.909A9.717,9.717,0,0,0,2.879,64.067Z" transform="translate(0 -54.82)" fill="#252a34"/>
      <path id="Path_29" data-name="Path 29" d="M28.326,186.291q-5.49,4.73-8.337,7.351-.954.895-1.549,1.4a9.009,9.009,0,0,1-1.582,1.023,3.967,3.967,0,0,1-1.841.522h-.034a3.968,3.968,0,0,1-1.841-.522,9.013,9.013,0,0,1-1.582-1.023q-.594-.5-1.548-1.4-2.26-2.109-8.32-7.351A9.9,9.9,0,0,1,0,184.437v16.917a3.778,3.778,0,0,0,.787,2.408,2.341,2.341,0,0,0,1.892,1H27.322a2.341,2.341,0,0,0,1.892-1A3.777,3.777,0,0,0,30,201.354V184.437A10.347,10.347,0,0,1,28.326,186.291Z" transform="translate(0 -174.764)" fill="#252a34"/>
    </g>
  </g>
</svg>
