<svg xmlns="http://www.w3.org/2000/svg" width="30" height="30" viewBox="0 0 30 30">
  <g id="fb-foot" transform="translate(-0.003)">
    <path id="Path_12" data-name="Path 12" d="M28.353,1.65A5.417,5.417,0,0,0,24.378,0H5.628A5.419,5.419,0,0,0,1.653,1.65,5.419,5.419,0,0,0,0,5.625v18.75a5.419,5.419,0,0,0,1.65,3.975A5.418,5.418,0,0,0,5.628,30h18.75A5.635,5.635,0,0,0,30,24.375V5.625A5.419,5.419,0,0,0,28.353,1.65ZM25.53,15.43H22.112v12.4H17V15.43H14.437V11.152H17V8.593a5.964,5.964,0,0,1,1.289-4.16q1.289-1.406,4.258-1.406H25.96V7.3H23.812q-1.094,0-1.4.381a2.211,2.211,0,0,0-.3,1.338v2.129H25.98Z" transform="translate(0)" fill="#fff"/>
  </g>
</svg>
