<svg id="html" xmlns="http://www.w3.org/2000/svg" width="38" height="45" viewBox="0 0 38 45">
  <path id="Path_31" data-name="Path 31" d="M38,0,34.538,40.5,18.977,45,3.458,40.5,0,0Z" fill="#e44d26" fill-rule="evenodd"/>
  <path id="Path_32" data-name="Path 32" d="M54.17,47.475l12.767-3.658,3-34.777H54.17Z" transform="translate(-35.459 -5.822)" fill="#f16529" fill-rule="evenodd"/>
  <path id="Path_33" data-name="Path 33" d="M25.44,27.659h6.832V22.61H20.16l.114,1.355,1.186,13.918H32.264V32.83H25.881l-.441-5.172Zm1.086,12.748H21.68l.676,7.931,9.894,2.871.021-.007V45.947l-.021.007-5.379-1.519-.345-4.029Z" transform="translate(-13.138 -14.561)" fill="#ebebeb" fill-rule="evenodd"/>
  <path id="Path_34" data-name="Path 34" d="M54.13,37.877h5.945l-.559,6.549L54.13,45.945V51.2l9.9-2.871.071-.853,1.136-13.3.117-1.355H54.13v5.052Zm0-10.235v.011H65.793l.1-1.136.221-2.562.114-1.355H54.13v5.041Z" transform="translate(-35.277 -14.554)" fill="#fff" fill-rule="evenodd"/>
</svg>
