<svg xmlns="http://www.w3.org/2000/svg" width="30" height="30" viewBox="0 0 30 30">
  <g id="ig-foot" transform="translate(-0.001)">
    <path id="Path_11" data-name="Path 11" d="M28.869,1.133A3.7,3.7,0,0,0,26.154,0H3.849A3.7,3.7,0,0,0,1.134,1.133,3.7,3.7,0,0,0,0,3.848v22.3a3.7,3.7,0,0,0,1.133,2.715A3.7,3.7,0,0,0,3.849,30h22.3A3.868,3.868,0,0,0,30,26.152V3.848A3.7,3.7,0,0,0,28.869,1.133Zm-18.1,9.677A5.894,5.894,0,0,1,15.021,9.1a5.918,5.918,0,0,1,4.267,1.709,5.535,5.535,0,0,1,1.768,4.131,5.534,5.534,0,0,1-1.768,4.13,5.916,5.916,0,0,1-4.267,1.709,5.9,5.9,0,0,1-4.248-1.709,5.534,5.534,0,0,1-1.768-4.13A5.535,5.535,0,0,1,10.773,10.81ZM26.6,25.352a1.138,1.138,0,0,1-.352.849,1.164,1.164,0,0,1-.84.342H4.533a1.168,1.168,0,0,1-1.191-1.191V12.7H6.095a8.41,8.41,0,0,0-.39,2.559,8.577,8.577,0,0,0,2.734,6.4A9.126,9.126,0,0,0,15.021,24.3a9.389,9.389,0,0,0,4.688-1.211,9.119,9.119,0,0,0,3.4-3.291,8.654,8.654,0,0,0,1.25-4.541,8.412,8.412,0,0,0-.391-2.559H26.6V25.352h0Zm0-17.442a1.335,1.335,0,0,1-1.348,1.348h-3.4A1.334,1.334,0,0,1,20.509,7.91V4.688a1.311,1.311,0,0,1,.39-.947,1.286,1.286,0,0,1,.957-.4h3.4a1.285,1.285,0,0,1,.957.4,1.31,1.31,0,0,1,.391.947Z" transform="translate(0)" fill="#fff"/>
  </g>
</svg>
