<svg xmlns="http://www.w3.org/2000/svg" xmlns:xlink="http://www.w3.org/1999/xlink" width="588" height="589" viewBox="0 0 588 589">
  <defs>
    <clipPath id="clip-path">
      <rect id="Rectangle_14" data-name="Rectangle 14" width="588" height="589" transform="translate(-0.222)"/>
    </clipPath>
    <linearGradient id="linear-gradient" x1="0.5" x2="0.5" y2="1" gradientUnits="objectBoundingBox">
      <stop offset="0" stop-color="#d1d3d4"/>
      <stop offset="0.388" stop-color="#d1d3d4"/>
      <stop offset="1" stop-color="#d1d3d4"/>
    </linearGradient>
    <linearGradient id="linear-gradient-3" y1="0.5" x2="1" y2="0.5" gradientUnits="objectBoundingBox">
      <stop offset="0" stop-color="#e8e7e5"/>
      <stop offset="1" stop-color="#fff"/>
    </linearGradient>
    <linearGradient id="linear-gradient-5" x1="0.5" y1="1.008" x2="0.5" y2="0.008" gradientUnits="objectBoundingBox">
      <stop offset="0" stop-color="#fff"/>
      <stop offset="1" stop-color="#fff" stop-opacity="0"/>
    </linearGradient>
  </defs>
  <g id="illus" transform="translate(0.222)" clip-path="url(#clip-path)">
    <path id="Path_23" data-name="Path 23" d="M198.476,0C308.094,0,396.952,85.871,396.952,191.8S308.094,383.6,198.476,383.6,0,297.728,0,191.8,88.862,0,198.476,0Z" transform="translate(144.303 102.465)" fill="#fff5eb"/>
    <path id="Path_22" data-name="Path 22" d="M185.732,0C288.308,0,371.465,80.357,371.465,179.484S288.308,358.967,185.732,358.967,0,278.609,0,179.484,83.155,0,185.732,0Z" transform="translate(156.905 123.497)" fill="#ffefdf"/>
    <path id="Path_21" data-name="Path 21" d="M175.58,0c96.97,0,175.58,75.965,175.58,169.672S272.55,339.345,175.58,339.345,0,263.38,0,169.672,78.61,0,175.58,0Z" transform="translate(164.882 143.119)" fill="#ffe4ca"/>
    <path id="Path_20" data-name="Path 20" d="M168.061,0c92.818,0,168.061,72.712,168.061,162.407S260.878,324.812,168.061,324.812,0,252.1,0,162.407,75.244,0,168.061,0Z" transform="translate(175.523 170.253)" fill="#ffd4a8"/>
    <rect id="Rectangle_6" data-name="Rectangle 6" width="73" height="116" rx="5" transform="translate(294.778 379)" fill="#004f89"/>
    <rect id="Rectangle_7" data-name="Rectangle 7" width="73" height="116" rx="5" transform="translate(298.778 379)" fill="#045fa2"/>
    <g id="Monitor" transform="translate(123.316 194.426)">
      <g id="Rectangle_1" data-name="Rectangle 1" transform="translate(0.461 -0.426)" fill="#004f89" stroke="#000" stroke-linecap="round" stroke-width="10">
        <rect width="438" height="252" rx="5" stroke="none"/>
        <rect x="5" y="5" width="428" height="242" fill="none"/>
      </g>
      <rect id="Rectangle_10" data-name="Rectangle 10" width="424" height="243" rx="5" transform="translate(7.461 5.574)" fill="rgba(0,0,0,0.1)"/>
      <line id="Line_1" data-name="Line 1" x2="42.306" transform="translate(27.454 45.456)" fill="none" stroke="#fbe0c4" stroke-linecap="round" stroke-width="5"/>
      <line id="Line_21" data-name="Line 21" x2="83.711" transform="translate(165.172 45.456)" fill="none" stroke="#9ddfd3" stroke-linecap="round" stroke-width="5"/>
      <line id="Line_17" data-name="Line 17" x2="37.805" transform="translate(27.454 117.465)" fill="none" stroke="#ff8303" stroke-linecap="round" stroke-width="5"/>
      <line id="Line_29" data-name="Line 29" x2="37.805" transform="translate(165.172 117.465)" fill="none" stroke="#ff8303" stroke-linecap="round" stroke-width="5"/>
      <line id="Line_9" data-name="Line 9" x2="25.203" transform="translate(27.454 81.461)" fill="none" stroke="#ff8303" stroke-linecap="round" stroke-width="5"/>
      <line id="Line_25" data-name="Line 25" x2="25.203" transform="translate(165.172 81.461)" fill="none" stroke="#9ddfd3" stroke-linecap="round" stroke-width="5"/>
      <line id="Line_16" data-name="Line 16" x2="84.611" transform="translate(27.454 153.47)" fill="none" stroke="#9ddfd3" stroke-linecap="round" stroke-width="5"/>
      <line id="Line_5" data-name="Line 5" x2="83.711" transform="translate(27.454 63.458)" fill="none" stroke="#fbe0c4" stroke-linecap="round" stroke-width="5"/>
      <line id="Line_23" data-name="Line 23" x2="83.711" transform="translate(165.172 63.458)" fill="none" stroke="#9ddfd3" stroke-linecap="round" stroke-width="5"/>
      <line id="Line_15" data-name="Line 15" x2="66.609" transform="translate(27.454 135.468)" fill="none" stroke="#ff8303" stroke-linecap="round" stroke-width="5"/>
      <line id="Line_31" data-name="Line 31" x2="66.609" transform="translate(165.172 135.468)" fill="none" stroke="#ff8303" stroke-linecap="round" stroke-width="5"/>
      <line id="Line_8" data-name="Line 8" x2="83.711" transform="translate(27.454 99.463)" fill="none" stroke="#ff8303" stroke-linecap="round" stroke-width="5"/>
      <line id="Line_27" data-name="Line 27" x2="57.608" transform="translate(165.172 99.463)" fill="none" stroke="#ff8303" stroke-linecap="round" stroke-width="5"/>
      <line id="Line_14" data-name="Line 14" x2="42.306" transform="translate(27.454 171.473)" fill="none" stroke="#9ddfd3" stroke-linecap="round" stroke-width="5"/>
      <line id="Line_19" data-name="Line 19" x2="42.306" transform="translate(28.354 198.476)" fill="none" stroke="#9ddfd3" stroke-linecap="round" stroke-width="5"/>
      <line id="Line_2" data-name="Line 2" x2="83.711" transform="translate(27.454 54.457)" fill="none" stroke="#fbe0c4" stroke-linecap="round" stroke-width="5"/>
      <line id="Line_22" data-name="Line 22" x2="52.207" transform="translate(165.172 54.457)" fill="none" stroke="#9ddfd3" stroke-linecap="round" stroke-width="5"/>
      <line id="Line_13" data-name="Line 13" x2="9.901" transform="translate(27.454 126.467)" fill="none" stroke="#ff8303" stroke-linecap="round" stroke-width="5"/>
      <line id="Line_30" data-name="Line 30" x2="83.711" transform="translate(165.172 126.467)" fill="none" stroke="#ff8303" stroke-linecap="round" stroke-width="5"/>
      <line id="Line_7" data-name="Line 7" x2="83.711" transform="translate(27.454 90.462)" fill="none" stroke="#ff8303" stroke-linecap="round" stroke-width="5"/>
      <line id="Line_26" data-name="Line 26" x2="83.711" transform="translate(165.172 90.462)" fill="none" stroke="#9ddfd3" stroke-linecap="round" stroke-width="5"/>
      <line id="Line_12" data-name="Line 12" x2="83.711" transform="translate(27.454 162.471)" fill="none" stroke="#9ddfd3" stroke-linecap="round" stroke-width="5"/>
      <line id="Line_20" data-name="Line 20" x2="83.711" transform="translate(28.354 189.475)" fill="none" stroke="#9ddfd3" stroke-linecap="round" stroke-width="5"/>
      <line id="Line_4" data-name="Line 4" x2="83.711" transform="translate(27.454 72.46)" fill="none" stroke="#fbe0c4" stroke-linecap="round" stroke-width="5"/>
      <line id="Line_24" data-name="Line 24" x2="12.602" transform="translate(165.172 72.46)" fill="none" stroke="#9ddfd3" stroke-linecap="round" stroke-width="5"/>
      <line id="Line_11" data-name="Line 11" x2="42.306" transform="translate(27.454 144.469)" fill="none" stroke="#9ddfd3" stroke-linecap="round" stroke-width="5"/>
      <line id="Line_6" data-name="Line 6" x2="66.609" transform="translate(27.454 108.464)" fill="none" stroke="#ff8303" stroke-linecap="round" stroke-width="5"/>
      <line id="Line_28" data-name="Line 28" x2="66.609" transform="translate(165.172 108.464)" fill="none" stroke="#ff8303" stroke-linecap="round" stroke-width="5"/>
      <line id="Line_10" data-name="Line 10" x2="15.302" transform="translate(27.454 180.474)" fill="none" stroke="#9ddfd3" stroke-linecap="round" stroke-width="5"/>
      <line id="Line_3" data-name="Line 3" y2="160.221" transform="translate(138.168 45.456)" fill="none" stroke="#f0e3ca" stroke-width="1"/>
      <line id="Line_32" data-name="Line 32" y2="160.221" transform="translate(275.886 42.756)" fill="none" stroke="#f0e3ca" stroke-width="1"/>
      <rect id="Rectangle_2" data-name="Rectangle 2" width="100" height="157" rx="5" transform="translate(306.461 44.574)" fill="#8ab6d6"/>
      <rect id="Rectangle_3" data-name="Rectangle 3" width="83" height="11" rx="5" transform="translate(315.461 85.574)" fill="#fbe0c4"/>
      <rect id="Rectangle_4" data-name="Rectangle 4" width="83" height="10" rx="5" transform="translate(315.461 107.574)" fill="#fbe0c4"/>
      <rect id="Rectangle_5" data-name="Rectangle 5" width="83" height="11" rx="5" transform="translate(315.461 126.574)" fill="#fbe0c4"/>
    </g>
    <ellipse id="Ellipse_1" data-name="Ellipse 1" cx="76.5" cy="14.5" rx="76.5" ry="14.5" transform="translate(294.778 476)" fill="#004f89"/>
    <g id="Group_7" data-name="Group 7" transform="translate(134.118 79.21)">
      <rect id="Rectangle_9" data-name="Rectangle 9" width="72" height="72" rx="10" transform="translate(-0.34 -0.21)" fill="#fff"/>
      <g id="Layer_x0020_1" transform="translate(13.502 13.502)">
        <g id="_513085304">
          <path id="Path_11" data-name="Path 11" d="M40.786,40.63,22.5,45.006,4.219,40.63,0,0H45.006Z" fill="#2062af" fill-rule="evenodd"/>
          <path id="Path_12" data-name="Path 12" d="M148146,24374v38.225l.047.008,14.8-3.539,3.406-34.693Z" transform="translate(-148123.5 -24370.709)" fill="#3c9cd7" fill-rule="evenodd"/>
          <path id="Path_13" data-name="Path 13" d="M61900.047,61190.223l-13.086,4.844.434,4.8,12.652-4.8,13.457-5.117.563-4.906Z" transform="translate(-61877.59 -61176.738)" fill="#fff" fill-rule="evenodd"/>
          <path id="Path_14" data-name="Path 14" d="M61887,99621.859l.43,4.8,12.652-4.812V99617Z" transform="translate(-61877.598 -99603.547)" fill-rule="evenodd" fill="url(#linear-gradient)"/>
          <path id="Path_15" data-name="Path 15" d="M148054.438,61186l-14,5.184v4.836l13.453-5.117Z" transform="translate(-148017.563 -61177.738)" fill-rule="evenodd" fill="url(#linear-gradient)"/>
          <path id="Path_16" data-name="Path 16" d="M62019,135497l.438,4.8,19.41.047-.434,6.391-6.387,1.609-6.141-1.391-.375-3.953h-5.7l.742,7.656,11.539,3.031,11.473-2.969,1.488-15.219Z" transform="translate(-62009.578 -135478.703)" fill-rule="evenodd" fill="url(#linear-gradient-3)"/>
          <path id="Path_17" data-name="Path 17" d="M61901.051,135497H61888l.434,4.8,12.648.031Zm0,12.828-.059.016-6.145-1.391-.367-3.953h-5.707l.746,7.656,11.531,3.031Z" transform="translate(-61878.598 -135478.703)" fill="rgba(0,0,0,0.05)" fill-rule="evenodd"/>
          <path id="Path_18" data-name="Path 18" d="M54129,61186h28.281l-.559,4.9h-27.043Z" transform="translate(-54120.781 -61177.738)" fill-rule="evenodd" fill="url(#linear-gradient-3)"/>
          <path id="Path_19" data-name="Path 19" d="M54143.223,61186H54129l.68,4.9h13.582Z" transform="translate(-54120.781 -61177.738)" fill="rgba(0,0,0,0.05)" fill-rule="evenodd"/>
        </g>
      </g>
    </g>
    <g id="Group_4" data-name="Group 4" transform="translate(27.004 284.438)">
      <rect id="Rectangle_8" data-name="Rectangle 8" width="72" height="72" rx="10" transform="translate(-0.226 -0.438)" fill="#fff"/>
      <g id="visual-studio-code" transform="translate(14.084 14.085)">
        <path id="Path_1" data-name="Path 1" d="M43.6,5.532,34.256.946a2.783,2.783,0,0,0-3.218.561L.458,29.926a1.953,1.953,0,0,0,0,2.849l2.5,2.315a1.861,1.861,0,0,0,2.411.11L42.191,6.721A1.874,1.874,0,0,1,45.2,8.245v-.11a2.892,2.892,0,0,0-1.6-2.6Z" transform="translate(0.16 -0.661)" fill="#0065a9"/>
        <g id="Group_1" data-name="Group 1" transform="translate(0 10.433)">
          <path id="Path_2" data-name="Path 2" d="M43.6,91.922l-9.341,4.585a2.783,2.783,0,0,1-3.221-.558L.458,67.527a1.951,1.951,0,0,1,0-2.847l2.5-2.314a1.861,1.861,0,0,1,2.413-.109L42.191,90.732a1.874,1.874,0,0,0,3.01-1.524v.11A2.892,2.892,0,0,1,43.6,91.922Z" transform="translate(0.16 -61.864)" fill="#007acc"/>
        </g>
        <g id="Group_2" data-name="Group 2" transform="translate(31.723 0)">
          <path id="Path_3" data-name="Path 3" d="M179.1,45.739a2.632,2.632,0,0,1-3.1-.553,1.591,1.591,0,0,0,2.727-1.181V2.671A1.591,1.591,0,0,0,176,1.49a2.637,2.637,0,0,1,3.1-.552l8.99,4.517a2.865,2.865,0,0,1,1.546,2.568v30.63a2.862,2.862,0,0,1-1.546,2.568Z" transform="translate(-176 -0.659)" fill="#1f9cf0"/>
        </g>
        <g id="Group_3" data-name="Group 3" transform="translate(0.002 0.001)" opacity="0.25">
          <path id="Path_4" data-name="Path 4" d="M31.989,45.83a2.806,2.806,0,0,0,2.25-.09l9.334-4.517a2.85,2.85,0,0,0,1.6-2.568V8.03a2.852,2.852,0,0,0-1.6-2.568L34.237.945a2.808,2.808,0,0,0-2.88.262,2.891,2.891,0,0,0-.338.291L13.149,17.889,5.366,11.948a1.876,1.876,0,0,0-2.411.109L.46,14.341a1.909,1.909,0,0,0,0,2.81L7.21,23.343.46,29.536a1.909,1.909,0,0,0,0,2.81l2.5,2.284a1.879,1.879,0,0,0,2.411.109L13.148,28.8,31.015,45.194a2.821,2.821,0,0,0,.974.636Zm1.86-32.836L20.291,23.343,33.849,33.695Z" transform="translate(0.157 -0.665)" fill-rule="evenodd" fill="url(#linear-gradient-5)"/>
        </g>
      </g>
    </g>
    <g id="Group_5" data-name="Group 5" transform="translate(456.36 57.608)">
      <rect id="Rectangle_9-2" data-name="Rectangle 9" width="72" height="72" rx="10" transform="translate(0.417 0.392)" fill="#fff"/>
      <g id="html" transform="translate(13.502 13.502)">
        <path id="Path_5" data-name="Path 5" d="M45.006,0l-4.1,40.505-18.43,4.5L4.1,40.505,0,0Z" fill="#e44d26" fill-rule="evenodd"/>
        <path id="Path_6" data-name="Path 6" d="M54.17,47.292l14.9-3.641,3.5-34.611H54.17Z" transform="translate(-31.669 -5.729)" fill="#f16529" fill-rule="evenodd"/>
        <path id="Path_7" data-name="Path 7" d="M26.317,27.577h7.971V22.61H20.16l.133,1.333,1.383,13.69H34.283v-4.97H26.835Zm1.27,12.54H21.933l.789,7.8,11.543,2.824.025-.007V45.568l-.025.007-6.277-1.494-.4-3.961Z" transform="translate(-11.786 -14.329)" fill="#ebebeb" fill-rule="evenodd"/>
        <path id="Path_8" data-name="Path 8" d="M54.13,37.632h6.937l-.653,6.442L54.13,45.569v5.168l11.551-2.824.083-.839L67.089,34l.137-1.333H54.13Zm0-10.069v.011H67.738l.113-1.117.257-2.52.133-1.333H54.13v4.959Z" transform="translate(-31.646 -14.323)" fill="#fff" fill-rule="evenodd"/>
      </g>
    </g>
    <g id="Group_6" data-name="Group 6" transform="translate(471.662 459.061)">
      <rect id="Rectangle_9-3" data-name="Rectangle 9" width="72" height="72" rx="10" transform="translate(0.115 -0.061)" fill="#fff"/>
      <g id="bootstrap-4" transform="translate(13.502 13.502)">
        <path id="Path_9" data-name="Path 9" d="M0,39.2a5.8,5.8,0,0,0,5.8,5.8H39.2a5.8,5.8,0,0,0,5.8-5.8V5.8A5.8,5.8,0,0,0,39.2,0H5.8A5.8,5.8,0,0,0,0,5.8Z" transform="translate(0 0)" fill="#563d7c" fill-rule="evenodd"/>
        <path id="Path_10" data-name="Path 10" d="M40.592,35.268V28.9H46.2a8.83,8.83,0,0,1,1.546.131,3.923,3.923,0,0,1,1.319.476,2.527,2.527,0,0,1,.915.956,3.15,3.15,0,0,1,.345,1.564A2.88,2.88,0,0,1,49.3,34.5a4.308,4.308,0,0,1-2.637.762H40.592ZM34.6,24.24V51.489H47.8a14,14,0,0,0,3.571-.462,9.509,9.509,0,0,0,3.089-1.413,6.969,6.969,0,0,0,2.16-2.461,8.32,8.32,0,0,0-.439-7.937,6.555,6.555,0,0,0-3.758-2.538,6.841,6.841,0,0,0,2.769-2.25,5.976,5.976,0,0,0,.934-3.436,7.286,7.286,0,0,0-.63-3.2,5.255,5.255,0,0,0-1.777-2.08,7.634,7.634,0,0,0-2.747-1.124,16.865,16.865,0,0,0-3.549-.344H34.6Zm5.992,22.593V39.352H47.12a5.069,5.069,0,0,1,3.132.9,3.526,3.526,0,0,1,1.181,2.993A3.735,3.735,0,0,1,51.072,45a2.891,2.891,0,0,1-.974,1.087,4.1,4.1,0,0,1-1.414.572A8.077,8.077,0,0,1,47,46.83H40.592Z" transform="translate(-21.926 -15.362)" fill="#fff" fill-rule="evenodd"/>
      </g>
    </g>
  </g>
</svg>
