<svg xmlns="http://www.w3.org/2000/svg" width="38" height="45" viewBox="0 0 38 45">
  <g id="javascript-programming-language" transform="translate(-2)">
    <path id="Path_35" data-name="Path 35" d="M0,0H38V45H0Z" transform="translate(2)" fill="#f7df1e" fill-rule="evenodd"/>
    <path id="Path_36" data-name="Path 36" d="M32.31,72.946l2.907-2.084c.56,1.179,1.07,2.175,2.295,2.175,1.172,0,1.914-.542,1.914-2.659V56H43v14.44c0,4.38-2.168,6.372-5.331,6.372a5.559,5.559,0,0,1-5.356-3.864Zm12.626-.454L47.843,70.5c.767,1.479,1.76,2.567,3.519,2.567a2.157,2.157,0,0,0,2.424-2.084c0-1.45-.968-1.963-2.6-2.809l-.894-.454c-2.576-1.3-4.286-2.93-4.286-6.372,0-3.171,2.041-5.588,5.229-5.588,2.27,0,3.9.938,5.075,3.384l-2.78,2.113c-.612-1.3-1.274-1.813-2.295-1.813a1.687,1.687,0,0,0-1.71,1.813c0,1.267.662,1.783,2.193,2.567l.894.454c3.037,1.542,4.744,3.113,4.744,6.647,0,3.8-2.527,5.889-5.919,5.889a6.773,6.773,0,0,1-6.5-4.321Zm0,0Z" transform="translate(-22.318 -35.34)" fill-rule="evenodd"/>
  </g>
</svg>
