<svg xmlns="http://www.w3.org/2000/svg" width="30" height="30" viewBox="0 0 30 30">
  <g id="linkedin-sign" transform="translate(-0.003)">
    <path id="Path_26" data-name="Path 26" d="M28.353,1.65A5.417,5.417,0,0,0,24.378,0H5.628A5.419,5.419,0,0,0,1.653,1.65,5.419,5.419,0,0,0,0,5.625v18.75a5.419,5.419,0,0,0,1.65,3.975A5.418,5.418,0,0,0,5.628,30h18.75A5.635,5.635,0,0,0,30,24.375V5.625A5.419,5.419,0,0,0,28.353,1.65ZM9.144,25.117H4.632V11.562H9.144V25.117ZM8.734,9.053a2.57,2.57,0,0,1-1.856.674h-.02a2.483,2.483,0,0,1-1.807-.674,2.234,2.234,0,0,1-.694-1.67A2.2,2.2,0,0,1,5.071,5.7a2.6,2.6,0,0,1,1.846-.664A2.5,2.5,0,0,1,8.734,5.7a2.309,2.309,0,0,1,.7,1.68A2.221,2.221,0,0,1,8.734,9.053ZM25.374,25.117H20.863V17.871q0-3.066-2.265-3.066a2.21,2.21,0,0,0-1.445.479,3.006,3.006,0,0,0-.879,1.162,3.222,3.222,0,0,0-.137,1.093v7.578H11.624q.059-12.265,0-13.555h4.512v1.914a4.531,4.531,0,0,1,4.043-2.226,4.89,4.89,0,0,1,3.77,1.543,6.486,6.486,0,0,1,1.426,4.551v7.774h0Z" fill="#252a34"/>
  </g>
</svg>
