<svg id="php-programming-language" xmlns="http://www.w3.org/2000/svg" width="38" height="45" viewBox="0 0 38 45">
  <path id="Path_37" data-name="Path 37" d="M19,45c10.493,0,19-10.074,19-22.5S29.493,0,19,0,0,10.074,0,22.5,8.507,45,19,45ZM29.032,18.059c-.145-.376-.529-.564-1.153-.564h-.943l-.554,6.641h.541a1.871,1.871,0,0,0,.971-.238,1.53,1.53,0,0,0,.566-.585,3.858,3.858,0,0,0,.356-1.041,14.078,14.078,0,0,0,.263-1.864,12.756,12.756,0,0,0,.049-1.72,2.181,2.181,0,0,0-.1-.629Zm-12.16-13.1h2.106c.34,0,.618.65.618,1.445a3.431,3.431,0,0,1-.019.361l-.353,4.242h1.126a3.2,3.2,0,0,1,1.645.4,3.133,3.133,0,0,1,1.215,1.424,7.24,7.24,0,0,1,.56,2.081l.22-2.652c.04-.708.3-1.257.612-1.257h4.082a2.7,2.7,0,0,1,1.8.658,4.98,4.98,0,0,1,1.351,2.1,12.618,12.618,0,0,1,.693,3.389,25.522,25.522,0,0,1-.04,4.134c-.053.614-.124,1.221-.213,1.814s-.2,1.142-.325,1.669-.275,1.048-.436,1.518a13.556,13.556,0,0,1-.547,1.366h0a8.214,8.214,0,0,1-.77,1.366,4.308,4.308,0,0,1-.866.925,2.991,2.991,0,0,1-1,.5,4.145,4.145,0,0,1-1.175.166H25.853l-.408,4.8c-.04.708-.3,1.257-.612,1.257H22.711a.243.243,0,0,1-.118-.029c-.334-.152-.554-.9-.492-1.691l.365-4.387a.305.305,0,0,1-.155.043h-2.14c-.34,0-.618-.65-.618-1.445a3.431,3.431,0,0,1,.019-.361l.829-9.98a8.127,8.127,0,0,0,.037-1.026c0-.072.022-.036.012-.065l-.087-.051a1.036,1.036,0,0,0-.52-.108H18.669l-.98,11.873c-.056.694-.315,1.171-.606,1.171H14.977c-.34,0-.618-.65-.618-1.445a3.431,3.431,0,0,1,.019-.361l.111-1.351-.093.2h0a8.214,8.214,0,0,1-.77,1.366,4.308,4.308,0,0,1-.866.925,2.991,2.991,0,0,1-1,.5,4.145,4.145,0,0,1-1.175.166H9.277l-.4,4.8c-.04.708-.3,1.257-.612,1.257H6.145a.243.243,0,0,1-.118-.029c-.334-.152-.554-.9-.492-1.691L7.422,12.264c.04-.708.3-1.257.612-1.257h4.082a2.7,2.7,0,0,1,1.8.658,4.951,4.951,0,0,1,1.351,2.1c.105.282.2.585.288.9l.711-8.535c.056-.694.315-1.178.606-1.178Zm-4.4,13.1c-.145-.376-.529-.564-1.153-.564h-.946l-.554,6.641h.541a1.871,1.871,0,0,0,.971-.238,1.53,1.53,0,0,0,.566-.585,3.858,3.858,0,0,0,.356-1.041,14.078,14.078,0,0,0,.263-1.864,12.756,12.756,0,0,0,.049-1.72,2.326,2.326,0,0,0-.093-.629Z" fill="#6884ba" fill-rule="evenodd"/>
  <path id="Path_38" data-name="Path 38" d="M19.87,22.21V33.83q0,1.56,0,1.56h0V22.2h0Zm0-13.35h0v8.38h0s0,.67,0,2V40.37h0V22.32h0V40.37h0V8.86Zm0,13.35s0,.48,0,1.44v4.96q0,3.66,0,5.22v1.56h0V22.2h0Zm0,26.53h0V40.36h0s0-.27,0-.82V20.35c0-2.08,0-3.13,0-3.13h0V48.74Zm0,0h0V40.36h0V29.08q0-5.595,0-8.73V17.22h0V48.74Z" transform="translate(0 -3.74)" fill-rule="evenodd"/>
</svg>
