<svg id="xd" xmlns="http://www.w3.org/2000/svg" width="38" height="45" viewBox="0 0 38 45">
  <g id="adobe-experience-design-1.svg">
    <path id="Path_39" data-name="Path 39" d="M55.56,55.56H90.393V96.714H55.56Z" transform="translate(-53.977 -53.637)" fill="#2e001e"/>
    <path id="Path_40" data-name="Path 40" d="M0,0V45H38V0ZM1.583,1.923H36.417V43.077H1.583Z" fill="#ff2bc2"/>
    <path id="Path_41" data-name="Path 41" d="M271.585,316.57a1.838,1.838,0,0,0-.918-.192c-1.995,0-3.325,1.865-3.325,4.961,0,3.538,1.362,4.961,3.135,4.961a2.515,2.515,0,0,0,1.092-.212V316.57h.016Zm-7.093,4.923c0-4.481,2.375-7.981,6.27-7.981a5.8,5.8,0,0,1,.823.038v-5a.178.178,0,0,1,.158-.192h2.549c.127,0,.158.058.158.154v17.577a16.594,16.594,0,0,0,.079,1.884c0,.135,0,.154-.095.212a8.074,8.074,0,0,1-4.053,1.115c-3.436,0-5.89-2.577-5.89-7.808Zm-5.4-3.115,4.433,10.442c.079.154.032.308-.095.308h-2.755c-.174,0-.253-.058-.333-.25q-1.52-3.807-3.1-7.9h-.032c-.95,2.577-2,5.385-3.008,7.923-.079.154-.158.212-.285.212h-2.628c-.158,0-.174-.154-.095-.269l4.338-10.135-4.2-10.077c-.095-.154,0-.288.111-.288h2.723a.243.243,0,0,1,.285.212c1,2.558,2.011,5.077,2.961,7.654h.032c.918-2.538,1.932-5.1,2.9-7.615.079-.154.127-.25.285-.25h2.549c.127,0,.174.115.095.288l-4.18,9.75Z" transform="translate(-243.988 -297.667)" fill="#ff2bc2"/>
  </g>
</svg>
